<svg width="56" height="56" viewBox="0 0 56 56" fill="none" xmlns="http://www.w3.org/2000/svg">
<path d="M28 0.875C42.9808 0.875 55.125 13.0192 55.125 28C55.125 42.9808 42.9808 55.125 28 55.125C13.0192 55.125 0.875 42.9808 0.875 28C0.875 13.0192 13.0192 0.875 28 0.875ZM36.5312 9.95703L28 14.6836L19.4688 9.95703L21.0166 6.33789C16.2829 7.85842 12.3357 10.8586 9.57812 14.6455L13.4951 14.2969L15.3379 23.8984L8.2041 30.5566L5.25 27.9795V28C5.25 32.889 6.78262 37.542 9.61914 41.4121L10.4922 37.5713L20.1826 38.7598L24.3145 47.6182L20.9258 49.6338C25.5011 51.1247 30.5072 51.1219 35.0742 49.6338L31.6855 47.6182L35.8174 38.7598L45.5078 37.5713L46.3809 41.4121C49.2173 37.542 50.75 32.889 50.75 28V27.9795L47.7959 30.5566L40.6621 23.8984L42.5352 14.2969L46.4219 14.6455C43.6639 10.8579 39.7167 7.85799 34.9844 6.33789L36.5312 9.95703ZM36.5312 25.6221L33.291 35.6094H22.7393L19.4688 25.6221L28 19.4395L36.5312 25.6221Z" fill="#ffffff"/>
<mask id="mask0_18104_1621" style="mask-type:luminance" maskUnits="userSpaceOnUse" x="0" y="0" width="56" height="56">
<path d="M28 0.875C42.9808 0.875 55.125 13.0192 55.125 28C55.125 42.9808 42.9808 55.125 28 55.125C13.0192 55.125 0.875 42.9808 0.875 28C0.875 13.0192 13.0192 0.875 28 0.875ZM36.5312 9.95703L28 14.6836L19.4688 9.95703L21.0166 6.33789C16.2829 7.85842 12.3357 10.8586 9.57812 14.6455L13.4951 14.2969L15.3379 23.8984L8.2041 30.5566L5.25 27.9795V28C5.25 32.889 6.78262 37.542 9.61914 41.4121L10.4922 37.5713L20.1826 38.7598L24.3145 47.6182L20.9258 49.6338C25.5011 51.1247 30.5072 51.1219 35.0742 49.6338L31.6855 47.6182L35.8174 38.7598L45.5078 37.5713L46.3809 41.4121C49.2173 37.542 50.75 32.889 50.75 28V27.9795L47.7959 30.5566L40.6621 23.8984L42.5352 14.2969L46.4219 14.6455C43.6639 10.8579 39.7167 7.85799 34.9844 6.33789L36.5312 9.95703ZM36.5312 25.6221L33.291 35.6094H22.7393L19.4688 25.6221L28 19.4395L36.5312 25.6221Z" fill="white"/>
</mask>
<g mask="url(#mask0_18104_1621)">
</g>
</svg>
